<svg xmlns="http://www.w3.org/2000/svg" xmlns:xlink="http://www.w3.org/1999/xlink" width="340" zoomAndPan="magnify" viewBox="0 0 255 194.249992" height="259" preserveAspectRatio="xMidYMid meet" version="1.0"><defs><g/><clipPath id="e87835e791"><path d="M 75.605469 75.171875 L 178 75.171875 L 178 117 L 75.605469 117 Z M 75.605469 75.171875 " clip-rule="nonzero"/></clipPath><clipPath id="d05ee50f34"><path d="M 97.324219 75.171875 L 157.675781 75.171875 C 169.671875 75.171875 179.394531 84.894531 179.394531 96.890625 C 179.394531 108.882812 169.671875 118.609375 157.675781 118.609375 L 97.324219 118.609375 C 85.328125 118.609375 75.605469 108.882812 75.605469 96.890625 C 75.605469 84.894531 85.328125 75.171875 97.324219 75.171875 " clip-rule="nonzero"/></clipPath><clipPath id="b1614b5b46"><path d="M 77.289062 77.417969 L 178 77.417969 L 178 116 L 77.289062 116 Z M 77.289062 77.417969 " clip-rule="nonzero"/></clipPath><clipPath id="eb4cd068c4"><path d="M 96.761719 77.417969 L 158.238281 77.417969 C 163.402344 77.417969 168.355469 79.46875 172.007812 83.121094 C 175.660156 86.773438 177.710938 91.726562 177.710938 96.890625 C 177.710938 102.054688 175.660156 107.007812 172.007812 110.660156 C 168.355469 114.308594 163.402344 116.363281 158.238281 116.363281 L 96.761719 116.363281 C 91.597656 116.363281 86.644531 114.308594 82.992188 110.660156 C 79.339844 107.007812 77.289062 102.054688 77.289062 96.890625 C 77.289062 91.726562 79.339844 86.773438 82.992188 83.121094 C 86.644531 79.46875 91.597656 77.417969 96.761719 77.417969 " clip-rule="nonzero"/></clipPath></defs><g clip-path="url(#e87835e791)"><g clip-path="url(#d05ee50f34)"><path fill="#000000" d="M 75.605469 75.171875 L 177.726562 75.171875 L 177.726562 116.777344 L 75.605469 116.777344 Z M 75.605469 75.171875 " fill-opacity="1" fill-rule="nonzero"/></g></g><g clip-path="url(#b1614b5b46)"><g clip-path="url(#eb4cd068c4)"><path fill="#eceed1" d="M 77.289062 77.417969 L 179.410156 77.417969 L 179.410156 115.242188 L 77.289062 115.242188 Z M 77.289062 77.417969 " fill-opacity="1" fill-rule="nonzero"/></g></g><g fill="#116063" fill-opacity="1"><g transform="translate(88.456924, 102.277806)"><g><path d="M 0.3125 -10.65625 L 8.234375 -10.65625 L 8.390625 -7.484375 L 8.109375 -7.484375 C 7.734375 -8.578125 7.300781 -9.320312 6.8125 -9.71875 C 6.320312 -10.113281 5.585938 -10.3125 4.609375 -10.3125 L 4.1875 -10.3125 L 4.1875 -5.375 L 4.875 -5.375 C 5.351562 -5.375 5.753906 -5.550781 6.078125 -5.90625 C 6.410156 -6.257812 6.632812 -6.742188 6.75 -7.359375 L 6.984375 -7.359375 L 6.984375 -2.859375 L 6.734375 -2.859375 C 6.566406 -3.617188 6.335938 -4.160156 6.046875 -4.484375 C 5.753906 -4.804688 5.363281 -4.96875 4.875 -4.96875 L 4.1875 -4.96875 L 4.1875 -0.328125 L 6.078125 -0.328125 L 6.078125 0 L 0.3125 0 L 0.3125 -0.328125 L 1.21875 -0.328125 L 1.21875 -10.3125 L 0.3125 -10.3125 Z M 0.3125 -10.65625 "/></g></g></g><g fill="#116063" fill-opacity="1"><g transform="translate(97.462663, 102.277806)"><g><path d="M 3.796875 -3.578125 L 4.25 -3.578125 L 4.25 -4.75 C 4.25 -5.707031 4.191406 -6.351562 4.078125 -6.6875 C 3.972656 -7.019531 3.769531 -7.1875 3.46875 -7.1875 C 3.289062 -7.1875 3.125 -7.132812 2.96875 -7.03125 C 2.820312 -6.9375 2.75 -6.804688 2.75 -6.640625 C 2.75 -6.472656 2.78125 -6.304688 2.84375 -6.140625 L 3.21875 -6.140625 C 3.300781 -5.921875 3.34375 -5.660156 3.34375 -5.359375 C 3.34375 -5.066406 3.21875 -4.8125 2.96875 -4.59375 C 2.71875 -4.375 2.398438 -4.265625 2.015625 -4.265625 C 1.140625 -4.265625 0.703125 -4.6875 0.703125 -5.53125 C 0.703125 -6.769531 1.757812 -7.390625 3.875 -7.390625 C 5.082031 -7.390625 5.914062 -7.179688 6.375 -6.765625 C 6.84375 -6.359375 7.078125 -5.609375 7.078125 -4.515625 L 7.078125 -1.4375 C 7.078125 -0.90625 7.222656 -0.640625 7.515625 -0.640625 C 7.859375 -0.640625 8.0625 -1.160156 8.125 -2.203125 L 8.359375 -2.1875 C 8.316406 -1.300781 8.144531 -0.6875 7.84375 -0.34375 C 7.550781 -0.0078125 7.070312 0.15625 6.40625 0.15625 C 5.1875 0.15625 4.488281 -0.21875 4.3125 -0.96875 C 4.175781 -0.582031 3.972656 -0.296875 3.703125 -0.109375 C 3.441406 0.0664062 3.0625 0.15625 2.5625 0.15625 C 1.050781 0.15625 0.296875 -0.457031 0.296875 -1.6875 C 0.296875 -2.40625 0.582031 -2.898438 1.15625 -3.171875 C 1.738281 -3.441406 2.617188 -3.578125 3.796875 -3.578125 Z M 3.203125 -1.703125 C 3.203125 -1.171875 3.226562 -0.828125 3.28125 -0.671875 C 3.332031 -0.523438 3.4375 -0.453125 3.59375 -0.453125 C 3.75 -0.453125 3.894531 -0.582031 4.03125 -0.84375 C 4.175781 -1.101562 4.25 -1.460938 4.25 -1.921875 L 4.25 -3.328125 L 4.140625 -3.328125 C 3.515625 -3.328125 3.203125 -2.867188 3.203125 -1.953125 Z M 3.203125 -1.703125 "/></g></g></g><g fill="#116063" fill-opacity="1"><g transform="translate(105.814268, 102.277806)"><g><path d="M 0.09375 -11.40625 L 3.8125 -11.40625 L 3.8125 -0.28125 L 4.671875 -0.28125 L 4.671875 0 L 0.15625 0 L 0.15625 -0.28125 L 0.984375 -0.28125 L 0.984375 -11.140625 L 0.09375 -11.140625 Z M 0.09375 -11.40625 "/></g></g></g><g fill="#116063" fill-opacity="1"><g transform="translate(110.621388, 102.277806)"><g><path d="M 0.09375 -11.40625 L 3.8125 -11.40625 L 3.8125 -0.28125 L 4.671875 -0.28125 L 4.671875 0 L 0.15625 0 L 0.15625 -0.28125 L 0.984375 -0.28125 L 0.984375 -11.140625 L 0.09375 -11.140625 Z M 0.09375 -11.40625 "/></g></g></g><g fill="#116063" fill-opacity="1"><g transform="translate(115.428508, 102.277806)"><g/></g></g><g fill="#116063" fill-opacity="1"><g transform="translate(118.166742, 102.277806)"><g><path d="M 0.3125 -10.65625 L 5.0625 -10.65625 L 5.0625 -10.359375 L 4.1875 -10.359375 L 4.1875 -5.640625 L 7.21875 -5.640625 L 7.21875 -10.359375 L 6.3125 -10.359375 L 6.3125 -10.65625 L 11.078125 -10.65625 L 11.078125 -10.359375 L 10.1875 -10.359375 L 10.1875 -0.296875 L 11.078125 -0.296875 L 11.078125 0 L 6.3125 0 L 6.3125 -0.296875 L 7.21875 -0.296875 L 7.21875 -5.25 L 4.1875 -5.25 L 4.1875 -0.296875 L 5.0625 -0.296875 L 5.0625 0 L 0.3125 0 L 0.3125 -0.296875 L 1.21875 -0.296875 L 1.21875 -10.359375 L 0.3125 -10.359375 Z M 0.3125 -10.65625 "/></g></g></g><g fill="#116063" fill-opacity="1"><g transform="translate(129.560827, 102.277806)"><g><path d="M 4.15625 0.15625 C 2.84375 0.15625 1.859375 -0.179688 1.203125 -0.859375 C 0.554688 -1.535156 0.234375 -2.472656 0.234375 -3.671875 C 0.234375 -4.878906 0.597656 -5.800781 1.328125 -6.4375 C 2.066406 -7.070312 3.003906 -7.390625 4.140625 -7.390625 C 6.441406 -7.390625 7.546875 -6.234375 7.453125 -3.921875 L 3.171875 -3.921875 L 3.171875 -3.328125 C 3.171875 -2.335938 3.296875 -1.585938 3.546875 -1.078125 C 3.796875 -0.566406 4.238281 -0.3125 4.875 -0.3125 C 6.050781 -0.3125 6.820312 -0.941406 7.1875 -2.203125 L 7.453125 -2.15625 C 7.265625 -1.425781 6.914062 -0.859375 6.40625 -0.453125 C 5.90625 -0.046875 5.15625 0.15625 4.15625 0.15625 Z M 3.1875 -4.234375 L 4.75 -4.234375 L 4.75 -4.96875 C 4.75 -5.789062 4.695312 -6.351562 4.59375 -6.65625 C 4.5 -6.957031 4.304688 -7.109375 4.015625 -7.109375 C 3.734375 -7.109375 3.523438 -6.945312 3.390625 -6.625 C 3.253906 -6.300781 3.1875 -5.75 3.1875 -4.96875 Z M 3.1875 -4.234375 "/></g></g></g><g fill="#116063" fill-opacity="1"><g transform="translate(137.410417, 102.277806)"><g><path d="M 0.09375 -11.40625 L 3.8125 -11.40625 L 3.8125 -0.28125 L 4.671875 -0.28125 L 4.671875 0 L 0.15625 0 L 0.15625 -0.28125 L 0.984375 -0.28125 L 0.984375 -11.140625 L 0.09375 -11.140625 Z M 0.09375 -11.40625 "/></g></g></g><g fill="#116063" fill-opacity="1"><g transform="translate(142.217537, 102.277806)"><g><path d="M 5.703125 -4.09375 C 5.703125 -5.132812 5.648438 -5.832031 5.546875 -6.1875 C 5.453125 -6.550781 5.253906 -6.734375 4.953125 -6.734375 C 4.660156 -6.734375 4.394531 -6.539062 4.15625 -6.15625 C 3.925781 -5.78125 3.8125 -5.273438 3.8125 -4.640625 L 3.8125 -1.859375 C 3.8125 -1.421875 3.898438 -1.050781 4.078125 -0.75 C 4.253906 -0.445312 4.507812 -0.296875 4.84375 -0.296875 C 5.175781 -0.296875 5.398438 -0.515625 5.515625 -0.953125 C 5.640625 -1.398438 5.703125 -2.179688 5.703125 -3.296875 Z M 3.796875 -7.25 L 3.796875 -6.046875 C 4.191406 -6.941406 4.890625 -7.390625 5.890625 -7.390625 C 6.765625 -7.390625 7.441406 -7.078125 7.921875 -6.453125 C 8.398438 -5.828125 8.640625 -4.875 8.640625 -3.59375 C 8.640625 -2.3125 8.378906 -1.363281 7.859375 -0.75 C 7.335938 -0.144531 6.554688 0.15625 5.515625 0.15625 C 5.023438 0.15625 4.65625 0.09375 4.40625 -0.03125 C 4.164062 -0.15625 3.96875 -0.34375 3.8125 -0.59375 L 3.8125 3.34375 L 5.78125 3.34375 L 5.78125 3.625 L 0.15625 3.625 L 0.15625 3.34375 L 0.984375 3.34375 L 0.984375 -6.96875 L 0.1875 -6.96875 L 0.1875 -7.25 Z M 3.796875 -7.25 "/></g></g></g><g fill="#116063" fill-opacity="1"><g transform="translate(151.162421, 102.277806)"><g><path d="M 4.15625 0.15625 C 2.84375 0.15625 1.859375 -0.179688 1.203125 -0.859375 C 0.554688 -1.535156 0.234375 -2.472656 0.234375 -3.671875 C 0.234375 -4.878906 0.597656 -5.800781 1.328125 -6.4375 C 2.066406 -7.070312 3.003906 -7.390625 4.140625 -7.390625 C 6.441406 -7.390625 7.546875 -6.234375 7.453125 -3.921875 L 3.171875 -3.921875 L 3.171875 -3.328125 C 3.171875 -2.335938 3.296875 -1.585938 3.546875 -1.078125 C 3.796875 -0.566406 4.238281 -0.3125 4.875 -0.3125 C 6.050781 -0.3125 6.820312 -0.941406 7.1875 -2.203125 L 7.453125 -2.15625 C 7.265625 -1.425781 6.914062 -0.859375 6.40625 -0.453125 C 5.90625 -0.046875 5.15625 0.15625 4.15625 0.15625 Z M 3.1875 -4.234375 L 4.75 -4.234375 L 4.75 -4.96875 C 4.75 -5.789062 4.695312 -6.351562 4.59375 -6.65625 C 4.5 -6.957031 4.304688 -7.109375 4.015625 -7.109375 C 3.734375 -7.109375 3.523438 -6.945312 3.390625 -6.625 C 3.253906 -6.300781 3.1875 -5.75 3.1875 -4.96875 Z M 3.1875 -4.234375 "/></g></g></g><g fill="#116063" fill-opacity="1"><g transform="translate(159.012011, 102.277806)"><g><path d="M 5.234375 -6.8125 C 4.859375 -6.8125 4.523438 -6.566406 4.234375 -6.078125 C 3.953125 -5.597656 3.8125 -5.023438 3.8125 -4.359375 L 3.8125 -0.28125 L 4.90625 -0.28125 L 4.90625 0 L 0.15625 0 L 0.15625 -0.28125 L 0.984375 -0.28125 L 0.984375 -6.96875 L 0.15625 -6.96875 L 0.15625 -7.25 L 3.8125 -7.25 L 3.8125 -5.78125 C 3.945312 -6.300781 4.203125 -6.695312 4.578125 -6.96875 C 4.953125 -7.25 5.378906 -7.390625 5.859375 -7.390625 C 6.335938 -7.390625 6.722656 -7.253906 7.015625 -6.984375 C 7.316406 -6.722656 7.46875 -6.34375 7.46875 -5.84375 C 7.46875 -5.351562 7.351562 -4.976562 7.125 -4.71875 C 6.90625 -4.457031 6.566406 -4.328125 6.109375 -4.328125 C 5.648438 -4.328125 5.3125 -4.476562 5.09375 -4.78125 C 4.875 -5.082031 4.84375 -5.503906 5 -6.046875 L 5.5625 -6.046875 C 5.8125 -6.554688 5.703125 -6.8125 5.234375 -6.8125 Z M 5.234375 -6.8125 "/></g></g></g></svg>